<svg width="34" height="34" viewBox="0 0 34 34" fill="none" xmlns="http://www.w3.org/2000/svg">
<path d="M3 0.5C1.61929 0.5 0.5 1.61929 0.5 3V31C0.5 32.3807 1.61929 33.5 3 33.5H31C32.3807 33.5 33.5 32.3807 33.5 31V3C33.5 1.61929 32.3807 0.5 31 0.5H3Z" fill="#D1FAE5" stroke="#047857"/>
<path d="M17 29C10.3724 29 5 23.6276 5 17C5 10.3724 10.3724 5 17 5C23.6276 5 29 10.3724 29 17C29 23.6276 23.6276 29 17 29ZM17 26.6C19.5461 26.6 21.9879 25.5886 23.7882 23.7882C25.5886 21.9879 26.6 19.5461 26.6 17C26.6 14.4539 25.5886 12.0121 23.7882 10.2118C21.9879 8.41143 19.5461 7.4 17 7.4C14.4539 7.4 12.0121 8.41143 10.2118 10.2118C8.41143 12.0121 7.4 14.4539 7.4 17C7.4 19.5461 8.41143 21.9879 10.2118 23.7882C12.0121 25.5886 14.4539 26.6 17 26.6ZM12.8 19.4H19.4C19.5591 19.4 19.7117 19.3368 19.8243 19.2243C19.9368 19.1117 20 18.9591 20 18.8C20 18.6409 19.9368 18.4883 19.8243 18.3757C19.7117 18.2632 19.5591 18.2 19.4 18.2H14.6C13.8044 18.2 13.0413 17.8839 12.4787 17.3213C11.9161 16.7587 11.6 15.9957 11.6 15.2C11.6 14.4044 11.9161 13.6413 12.4787 13.0787C13.0413 12.5161 13.8044 12.2 14.6 12.2H15.8V9.8H18.2V12.2H21.2V14.6H14.6C14.4409 14.6 14.2883 14.6632 14.1757 14.7757C14.0632 14.8883 14 15.0409 14 15.2C14 15.3591 14.0632 15.5117 14.1757 15.6243C14.2883 15.7368 14.4409 15.8 14.6 15.8H19.4C20.1957 15.8 20.9587 16.1161 21.5213 16.6787C22.0839 17.2413 22.4 18.0044 22.4 18.8C22.4 19.5956 22.0839 20.3587 21.5213 20.9213C20.9587 21.4839 20.1957 21.8 19.4 21.8H18.2V24.2H15.8V21.8H12.8V19.4Z" fill="#047857"/>
</svg>
