<svg width="34" height="34" viewBox="0 0 34 34" fill="none" xmlns="http://www.w3.org/2000/svg">
<path d="M3 0.5C1.61929 0.5 0.5 1.61929 0.5 3V31C0.5 32.3807 1.61929 33.5 3 33.5H31C32.3807 33.5 33.5 32.3807 33.5 31V3C33.5 1.61929 32.3807 0.5 31 0.5H3Z" fill="#FEF3C7" stroke="#B45309"/>
<path d="M17 5C23.6276 5 29 10.3724 29 17C29 23.6276 23.6276 29 17 29C14.2022 29.0041 11.4916 28.0265 9.34041 26.2376L9.04761 25.9868L10.13 23.7044C11.6756 25.2885 13.721 26.2899 15.9201 26.5392C18.1193 26.7884 20.337 26.2702 22.1979 25.0722C24.0588 23.8742 25.4486 22.07 26.1321 19.9649C26.8155 17.8599 26.7507 15.5834 25.9485 13.5207C25.1463 11.458 23.6561 9.73584 21.73 8.64568C19.8039 7.55552 17.5603 7.16434 15.379 7.53835C13.1976 7.91237 11.2125 9.0286 9.75958 10.6981C8.30667 12.3676 7.47524 14.4879 7.40601 16.7L7.40001 17H10.4L7.15281 23.8592C5.74787 21.8481 4.99622 19.4532 5.00001 17C5.00001 10.3724 10.3724 5 17 5ZM18.2 9.8V12.2H21.2V14.6H14.6C14.4501 14.5997 14.3055 14.6556 14.1947 14.7566C14.0839 14.8576 14.0149 14.9965 14.0014 15.1458C13.9878 15.2951 14.0307 15.4441 14.1215 15.5634C14.2123 15.6827 14.3445 15.7637 14.492 15.7904L14.6 15.8H19.4C20.1957 15.8 20.9587 16.1161 21.5213 16.6787C22.0839 17.2413 22.4 18.0043 22.4 18.8C22.4 19.5956 22.0839 20.3587 21.5213 20.9213C20.9587 21.4839 20.1957 21.8 19.4 21.8H18.2V24.2H15.8V21.8H12.8V19.4H19.4C19.5499 19.4003 19.6945 19.3444 19.8053 19.2434C19.9161 19.1424 19.9851 19.0035 19.9987 18.8542C20.0122 18.7049 19.9694 18.5559 19.8785 18.4366C19.7877 18.3173 19.6555 18.2363 19.508 18.2096L19.4 18.2H14.6C13.8044 18.2 13.0413 17.8839 12.4787 17.3213C11.9161 16.7587 11.6 15.9956 11.6 15.2C11.6 14.4043 11.9161 13.6413 12.4787 13.0787C13.0413 12.5161 13.8044 12.2 14.6 12.2H15.8V9.8H18.2Z" fill="#B45309"/>
</svg>
