<svg width="34" height="34" viewBox="0 0 34 34" fill="none" xmlns="http://www.w3.org/2000/svg">
<path d="M3 0.5C1.61929 0.5 0.5 1.61929 0.5 3V31C0.5 32.3807 1.61929 33.5 3 33.5H31C32.3807 33.5 33.5 32.3807 33.5 31V3C33.5 1.61929 32.3807 0.5 31 0.5H3Z" fill="#BAE6FD" stroke="#0369A1"/>
<path d="M13.965 23C13.8461 23.8343 13.4302 24.5977 12.7937 25.1499C12.1571 25.7022 11.3427 26.0063 10.5 26.0063C9.65728 26.0063 8.84286 25.7022 8.20632 25.1499C7.56979 24.5977 7.15388 23.8343 7.035 23H6V11C6 10.7348 6.10536 10.4804 6.29289 10.2929C6.48043 10.1054 6.73478 10 7 10H21C21.2652 10 21.5196 10.1054 21.7071 10.2929C21.8946 10.4804 22 10.7348 22 11V13H25L28 17.056V23H25.965C25.8461 23.8343 25.4302 24.5977 24.7937 25.1499C24.1571 25.7022 23.3427 26.0063 22.5 26.0063C21.6573 26.0063 20.8429 25.7022 20.2063 25.1499C19.5698 24.5977 19.1539 23.8343 19.035 23H13.965ZM20 12H8V20.05C8.39456 19.6472 8.8806 19.3457 9.41675 19.1711C9.9529 18.9966 10.5233 18.9541 11.0794 19.0474C11.6355 19.1407 12.1608 19.3669 12.6106 19.7069C13.0604 20.0469 13.4215 20.4905 13.663 21H19.337C19.505 20.647 19.73 20.326 20 20.05V12ZM22 18H26V17.715L23.992 15H22V18ZM22.5 24C22.898 24 23.2796 23.8419 23.561 23.5605C23.8424 23.2791 24.0005 22.8975 24.0005 22.4995C24.0005 22.1015 23.8424 21.7199 23.561 21.4385C23.2796 21.1571 22.898 20.999 22.5 20.999C22.102 20.999 21.7204 21.1571 21.439 21.4385C21.1576 21.7199 20.9995 22.1015 20.9995 22.4995C20.9995 22.8975 21.1576 23.2791 21.439 23.5605C21.7204 23.8419 22.102 24 22.5 24ZM12 22.5C12 22.303 11.9612 22.108 11.8858 21.926C11.8104 21.744 11.6999 21.5786 11.5607 21.4393C11.4214 21.3001 11.256 21.1896 11.074 21.1142C10.892 21.0388 10.697 21 10.5 21C10.303 21 10.108 21.0388 9.92597 21.1142C9.74399 21.1896 9.57863 21.3001 9.43934 21.4393C9.30005 21.5786 9.18956 21.744 9.11418 21.926C9.0388 22.108 9 22.303 9 22.5C9 22.8978 9.15804 23.2794 9.43934 23.5607C9.72064 23.842 10.1022 24 10.5 24C10.8978 24 11.2794 23.842 11.5607 23.5607C11.842 23.2794 12 22.8978 12 22.5Z" fill="#0369A1"/>
</svg>
